<svg xmlns="http://www.w3.org/2000/svg" width="1200" height="630" viewBox="0 0 1200 630" role="img" aria-label="DecorPalette social cover">
  <rect width="1200" height="630" fill="#0b0d10"/>
  <rect x="0" y="0" width="1200" height="630" fill="url(#g)"/>
  <defs>
    <linearGradient id="g" x1="0" y1="0" x2="1" y2="1">
      <stop offset="0" stop-color="#0e7c66" stop-opacity="0.25"/>
      <stop offset="1" stop-color="#0b0d10" stop-opacity="0"/>
    </linearGradient>
  </defs>
  <g transform="translate(90,120)">
    <rect x="0" y="0" width="120" height="120" rx="26" fill="#0e7c66"/>
    <path d="M60 22a38 38 0 0 0 0 76c6.6 0 9-4.2 9-9 0-4.8-4.2-7.6-4.2-12.4 0-3.8 3.1-6.9 6.9-6.9H80a20.7 20.7 0 0 0 0-47.7Z" fill="#fff"/>
  </g>
  <text x="90" y="360" font-family="Segoe UI, Helvetica, Arial, sans-serif" font-size="76" font-weight="800" fill="#eef1f4">DecorPalette</text>
  <text x="90" y="430" font-family="Segoe UI, Helvetica, Arial, sans-serif" font-size="38" fill="#a4adb6">Accessible interior color palettes, generated in your browser.</text>
  <g transform="translate(90,500)">
    <rect x="0"   width="180" height="60" rx="12" fill="#0e7c66"/>
    <rect x="200" width="180" height="60" rx="12" fill="#e07a5f"/>
    <rect x="400" width="180" height="60" rx="12" fill="#ffd479"/>
    <rect x="600" width="180" height="60" rx="12" fill="#3d5a80"/>
    <rect x="800" width="180" height="60" rx="12" fill="#f4efe7"/>
  </g>
</svg>
